<svg version="1.1" viewBox="0.0 0.0 198.16535433070865 123.56955380577428" fill="none" stroke="none" stroke-linecap="square" stroke-miterlimit="10" xmlns:xlink="http://www.w3.org/1999/xlink" xmlns="http://www.w3.org/2000/svg"><clipPath id="p.0"><path d="m0 0l198.16536 0l0 123.56956l-198.16536 0l0 -123.56956z" clip-rule="nonzero"/></clipPath><g clip-path="url(#p.0)"><path fill="#000000" fill-opacity="0.0" d="m0 0l198.16536 0l0 123.56956l-198.16536 0z" fill-rule="evenodd"/><path fill="#000000" fill-opacity="0.0" d="m0 0l199.33858 0l0 124.755905l-199.33858 0z" fill-rule="evenodd"/><path fill="#ff9900" d="m17.1875 49.96q-1.625 0 -2.96875 -0.8125q-1.34375 -0.8125 -2.15625 -2.15625q-0.796875 -1.34375 -0.796875 -2.953125l0 -2.359375l5.625 0l0 2.09375q0 0.21875 0.140625 0.375q0.15625 0.140625 0.375 0.140625l18.375 0q0.21875 0 0.359375 -0.140625q0.15625 -0.15625 0.15625 -0.375l0 -5.84375q0 -0.21875 -0.15625 -0.34375q-0.140625 -0.125 -0.359375 -0.125l-18.59375 0q-1.625 0 -2.96875 -0.8125q-1.34375 -0.8125 -2.15625 -2.15625q-0.796875 -1.34375 -0.796875 -3.0l0 -6.3125q0 -1.625 0.796875 -2.96875q0.8125 -1.34375 2.15625 -2.15625q1.34375 -0.8125 2.96875 -0.8125l18.859375 0q1.625 0 2.96875 0.8125q1.34375 0.8125 2.140625 2.15625q0.8125 1.34375 0.8125 2.96875l0 2.34375l-5.671875 0l0 -2.09375q0 -0.203125 -0.15625 -0.359375q-0.140625 -0.15625 -0.359375 -0.15625l-18.375 0q-0.21875 0 -0.375 0.15625q-0.140625 0.15625 -0.140625 0.359375l0 5.84375q0 0.21875 0.140625 0.34375q0.15625 0.125 0.375 0.125l18.640625 0q1.625 0 2.96875 0.8125q1.34375 0.8125 2.140625 2.15625q0.8125 1.34375 0.8125 3.0l0 6.328125q0 1.609375 -0.8125 2.953125q-0.796875 1.34375 -2.140625 2.15625q-1.34375 0.8125 -2.96875 0.8125l-18.859375 0zm35.10901 0q-1.625 0 -2.953125 -0.8125q-1.3125 -0.8125 -2.125 -2.125q-0.8125 -1.328125 -0.8125 -2.953125l0 -12.96875q0 -1.609375 0.8125 -2.9375q0.8125 -1.328125 2.125 -2.125q1.328125 -0.8125 2.953125 -0.8125l19.1875 0l0 5.578125l-18.96875 0q-0.21875 0 -0.375 0.15625q-0.140625 0.140625 -0.140625 0.359375l0 12.546875q0 0.203125 0.140625 0.359375q0.15625 0.140625 0.375 0.140625l19.015625 0l0 5.59375l-19.234375 0l0 0zm23.503632 0l0 0l0 -18.859375q0 -1.609375 0.8125 -2.9375q0.8125 -1.328125 2.15625 -2.125q1.34375 -0.8125 2.921875 -0.8125l13.734375 0l0 5.578125l-13.53125 0q-0.203125 0 -0.359375 0.15625q-0.140625 0.140625 -0.140625 0.359375l0 18.640625l-5.59375 0zm22.863861 0l0 0l0 -24.734375l5.59375 0l0 24.734375l-5.59375 0zm0 -27.21875l0 0l0 -5.625l5.59375 0l0 5.625l-5.59375 0zm9.803787 37.03125l0 0l0 -34.546875l19.25 0q1.609375 0 2.953125 0.8125q1.34375 0.796875 2.125 2.125q0.796875 1.328125 0.796875 2.9375l0 12.96875q0 1.625 -0.796875 2.953125q-0.78125 1.3125 -2.125 2.125q-1.34375 0.8125 -2.953125 0.8125l-13.65625 0l0 9.8125l-5.59375 0zm6.109375 -15.40625l12.921875 0q0.21875 0 0.359375 -0.140625q0.15625 -0.15625 0.15625 -0.359375l0 -12.546875q0 -0.21875 -0.15625 -0.359375q-0.140625 -0.15625 -0.359375 -0.15625l-12.921875 0q-0.21875 0 -0.375 0.15625q-0.140625 0.140625 -0.140625 0.359375l0 12.546875q0 0.203125 0.140625 0.359375q0.15625 0.140625 0.375 0.140625zm28.058075 5.59375q-1.609375 0 -2.9375 -0.8125q-1.328125 -0.8125 -2.140625 -2.125q-0.796875 -1.328125 -0.796875 -2.953125l0 -26.4375l5.578125 0l0 7.59375l9.640625 0l0 5.578125l-9.640625 0l0 13.0625q0 0.203125 0.140625 0.359375q0.15625 0.140625 0.375 0.140625l9.125 0l0 5.59375l-9.34375 0l0 0zm18.77716 0q-1.625 0 -2.96875 -0.8125q-1.34375 -0.8125 -2.15625 -2.15625q-0.8125 -1.34375 -0.8125 -2.953125l0 -18.859375q0 -1.625 0.8125 -2.96875q0.8125 -1.34375 2.15625 -2.15625q1.34375 -0.8125 2.96875 -0.8125l18.859375 0q1.609375 0 2.953125 0.8125q1.34375 0.8125 2.15625 2.15625q0.8125 1.34375 0.8125 2.96875l0 18.859375q0 1.609375 -0.8125 2.953125q-0.8125 1.34375 -2.15625 2.15625q-1.34375 0.8125 -2.953125 0.8125l-18.859375 0zm0.21875 -5.671875l18.328125 0q0.21875 0 0.390625 -0.140625q0.171875 -0.15625 0.171875 -0.375l0 -18.34375q0 -0.203125 -0.171875 -0.359375q-0.171875 -0.15625 -0.390625 -0.15625l-18.328125 0q-0.21875 0 -0.375 0.15625q-0.140625 0.15625 -0.140625 0.359375l0 18.34375q0 0.21875 0.140625 0.375q0.15625 0.140625 0.375 0.140625z" fill-rule="nonzero"/><path fill="#ff9900" d="m30.240295 101.159996q-1.625 0 -2.96875 -0.8125q-1.34375 -0.8125 -2.15625 -2.15625q-0.796875 -1.34375 -0.796875 -2.953125l0 -2.359375l5.625 0l0 2.09375q0 0.21875 0.140625 0.375q0.15625 0.140625 0.375 0.140625l18.375 0q0.21875 0 0.359375 -0.140625q0.15625 -0.15625 0.15625 -0.375l0 -5.84375q0 -0.21875 -0.15625 -0.34375q-0.140625 -0.125 -0.359375 -0.125l-18.59375 0q-1.625 0 -2.96875 -0.8125q-1.34375 -0.8125 -2.15625 -2.15625q-0.796875 -1.34375 -0.796875 -3.0l0 -6.3125q0 -1.625 0.796875 -2.96875q0.8125 -1.34375 2.15625 -2.15625q1.34375 -0.8125 2.96875 -0.8125l18.859375 0q1.625 0 2.96875 0.8125q1.34375 0.8125 2.140625 2.15625q0.8125 1.34375 0.8125 2.96875l0 2.34375l-5.671875 0l0 -2.09375q0 -0.203125 -0.15625 -0.359375q-0.140625 -0.15625 -0.359375 -0.15625l-18.375 0q-0.21875 0 -0.375 0.15625q-0.140625 0.15625 -0.140625 0.359375l0 5.84375q0 0.21875 0.140625 0.34375q0.15625 0.125 0.375 0.125l18.640625 0q1.625 0 2.96875 0.8125q1.34375 0.8125 2.140625 2.15625q0.8125 1.34375 0.8125 3.0l0 6.328125q0 1.609375 -0.8125 2.953125q-0.796875 1.34375 -2.140625 2.15625q-1.34375 0.8125 -2.96875 0.8125l-18.859375 0zm35.187134 0q-1.609375 0 -2.9375 -0.8125q-1.328125 -0.8125 -2.140625 -2.125q-0.796875 -1.328125 -0.796875 -2.953125l0 -26.4375l5.578125 0l0 7.59375l9.640625 0l0 5.578125l-9.640625 0l0 13.0625q0 0.203125 0.140625 0.359375q0.15625 0.140625 0.375 0.140625l9.125 0l0 5.59375l-9.34375 0l0 0zm18.68341 0q-1.609375 0 -2.953125 -0.8125q-1.34375 -0.8125 -2.140625 -2.125q-0.78125 -1.328125 -0.78125 -2.953125l0 -18.84375l5.578125 0l0 18.640625q0 0.203125 0.140625 0.359375q0.15625 0.140625 0.375 0.140625l12.921875 0q0.21875 0 0.359375 -0.140625q0.15625 -0.15625 0.15625 -0.359375l0 -18.640625l5.59375 0l0 18.84375q0 1.625 -0.796875 2.953125q-0.78125 1.3125 -2.109375 2.125q-1.328125 0.8125 -2.984375 0.8125l-13.359375 0l0 0zm28.508423 0q-1.671875 0 -3.0 -0.8125q-1.3125 -0.8125 -2.109375 -2.125q-0.78125 -1.328125 -0.78125 -2.953125l0 -12.96875q0 -1.609375 0.78125 -2.9375q0.796875 -1.328125 2.109375 -2.125q1.328125 -0.8125 3.0 -0.8125l13.6875 0l0 -8.109375l5.578125 0l0 32.84375l-19.265625 0l0 0zm0.25 -5.59375l12.921875 0q0.21875 0 0.359375 -0.140625q0.15625 -0.15625 0.15625 -0.359375l0 -12.546875q0 -0.21875 -0.15625 -0.359375q-0.140625 -0.15625 -0.359375 -0.15625l-12.921875 0q-0.21875 0 -0.375 0.15625q-0.140625 0.140625 -0.140625 0.359375l0 12.546875q0 0.203125 0.140625 0.359375q0.15625 0.140625 0.375 0.140625zm23.545425 5.59375l0 0l0 -24.734375l5.59375 0l0 24.734375l-5.59375 0zm0 -27.21875l0 0l0 -5.625l5.59375 0l0 5.625l-5.59375 0zm15.485291 27.21875q-1.625 0 -2.96875 -0.8125q-1.34375 -0.8125 -2.15625 -2.15625q-0.8125 -1.34375 -0.8125 -2.953125l0 -18.859375q0 -1.625 0.8125 -2.96875q0.8125 -1.34375 2.15625 -2.15625q1.34375 -0.8125 2.96875 -0.8125l18.859375 0q1.609375 0 2.953125 0.8125q1.34375 0.8125 2.15625 2.15625q0.8125 1.34375 0.8125 2.96875l0 18.859375q0 1.609375 -0.8125 2.953125q-0.8125 1.34375 -2.15625 2.15625q-1.34375 0.8125 -2.953125 0.8125l-18.859375 0zm0.21875 -5.671875l18.328125 0q0.21875 0 0.390625 -0.140625q0.171875 -0.15625 0.171875 -0.375l0 -18.34375q0 -0.203125 -0.171875 -0.359375q-0.171875 -0.15625 -0.390625 -0.15625l-18.328125 0q-0.21875 0 -0.375 0.15625q-0.140625 0.15625 -0.140625 0.359375l0 18.34375q0 0.21875 0.140625 0.375q0.15625 0.140625 0.375 0.140625z" fill-rule="nonzero"/></g></svg>