<svg xmlns="http://www.w3.org/2000/svg" xmlns:xlink="http://www.w3.org/1999/xlink" style="display: none;">
  <defs>
    <symbol id="tabler-link" viewBox="0 0 24 24" fill="none" stroke="currentColor" stroke-width="2" stroke-linecap="round" stroke-linejoin="round">
      <path stroke="none" d="M0 0h24v24H0z" fill="none"/>
  <path d="M9 15l6 -6" />
  <path d="M11 6l.463 -.536a5 5 0 0 1 7.071 7.072l-.534 .464" />
  <path d="M13 18l-.397 .534a5.068 5.068 0 0 1 -7.127 0a4.972 4.972 0 0 1 0 -7.071l.524 -.463" />
    </symbol>
    <symbol id="tabler-unlink" viewBox="0 0 24 24" fill="none" stroke="currentColor" stroke-width="2" stroke-linecap="round" stroke-linejoin="round">
      <path stroke="none" d="M0 0h24v24H0z" fill="none"/>
  <path d="M17 22v-2" />
  <path d="M9 15l6 -6" />
  <path d="M11 6l.463 -.536a5 5 0 0 1 7.071 7.072l-.534 .464" />
  <path d="M13 18l-.397 .534a5.068 5.068 0 0 1 -7.127 0a4.972 4.972 0 0 1 0 -7.071l.524 -.463" />
  <path d="M20 17h2" />
  <path d="M2 7h2" />
  <path d="M7 2v2" />
    </symbol>
    <symbol id="tabler-refresh-alert" viewBox="0 0 24 24" fill="none" stroke="currentColor" stroke-width="2" stroke-linecap="round" stroke-linejoin="round">
      <path stroke="none" d="M0 0h24v24H0z" fill="none"/>
  <path d="M20 11a8.1 8.1 0 0 0 -15.5 -2m-.5 -4v4h4" />
  <path d="M4 13a8.1 8.1 0 0 0 15.5 2m.5 4v-4h-4" />
  <path d="M12 9l0 3" />
  <path d="M12 15l.01 0" />
    </symbol>
    <symbol id="tabler-player-play" viewBox="0 0 24 24" fill="none" stroke="currentColor" stroke-width="2" stroke-linecap="round" stroke-linejoin="round">
      <path stroke="none" d="M0 0h24v24H0z" fill="none"/>
  <path d="M7 4v16l13 -8z" />
    </symbol>
    <symbol id="tabler-player-stop" viewBox="0 0 24 24" fill="none" stroke="currentColor" stroke-width="2" stroke-linecap="round" stroke-linejoin="round">
      <path stroke="none" d="M0 0h24v24H0z" fill="none"/>
  <path d="M5 5m0 2a2 2 0 0 1 2 -2h10a2 2 0 0 1 2 2v10a2 2 0 0 1 -2 2h-10a2 2 0 0 1 -2 -2z" />
    </symbol>
    <symbol id="tabler-file-plus" viewBox="0 0 24 24" fill="none" stroke="currentColor" stroke-width="2" stroke-linecap="round" stroke-linejoin="round">
      <path stroke="none" d="M0 0h24v24H0z" fill="none"/>
  <path d="M14 3v4a1 1 0 0 0 1 1h4" />
  <path d="M17 21h-10a2 2 0 0 1 -2 -2v-14a2 2 0 0 1 2 -2h7l5 5v11a2 2 0 0 1 -2 2z" />
  <path d="M12 11l0 6" />
  <path d="M9 14l6 0" />
    </symbol>
    <symbol id="tabler-device-floppy" viewBox="0 0 24 24" fill="none" stroke="currentColor" stroke-width="2" stroke-linecap="round" stroke-linejoin="round">
      <path stroke="none" d="M0 0h24v24H0z" fill="none"/>
  <path d="M6 4h10l4 4v10a2 2 0 0 1 -2 2h-12a2 2 0 0 1 -2 -2v-12a2 2 0 0 1 2 -2" />
  <path d="M12 14m-2 0a2 2 0 1 0 4 0a2 2 0 1 0 -4 0" />
  <path d="M14 4l0 4l-6 0l0 -4" />
    </symbol>
    <symbol id="tabler-script" viewBox="0 0 24 24" fill="none" stroke="currentColor" stroke-width="2" stroke-linecap="round" stroke-linejoin="round">
      <path stroke="none" d="M0 0h24v24H0z" fill="none"/>
  <path d="M17 20h-11a3 3 0 0 1 0 -6h11a3 3 0 0 0 0 6h1a3 3 0 0 0 3 -3v-11a2 2 0 0 0 -2 -2h-10a2 2 0 0 0 -2 2v8" />
    </symbol>
    <symbol id="tabler-robot" viewBox="0 0 24 24" fill="none" stroke="currentColor" stroke-width="2" stroke-linecap="round" stroke-linejoin="round">
      <path stroke="none" d="M0 0h24v24H0z" fill="none"/>
  <path d="M6 4m0 2a2 2 0 0 1 2 -2h8a2 2 0 0 1 2 2v4a2 2 0 0 1 -2 2h-8a2 2 0 0 1 -2 -2z" />
  <path d="M12 2v2" />
  <path d="M9 12v9" />
  <path d="M15 12v9" />
  <path d="M5 16l4 -2" />
  <path d="M15 14l4 2" />
  <path d="M9 18h6" />
  <path d="M10 8v.01" />
  <path d="M14 8v.01" />
    </symbol>
    <symbol id="tabler-code" viewBox="0 0 24 24" fill="none" stroke="currentColor" stroke-width="2" stroke-linecap="round" stroke-linejoin="round">
      <path stroke="none" d="M0 0h24v24H0z" fill="none"/>
  <path d="M7 8l-4 4l4 4" />
  <path d="M17 8l4 4l-4 4" />
  <path d="M14 4l-4 16" />
    </symbol>
    <symbol id="tabler-folder" viewBox="0 0 24 24" fill="none" stroke="currentColor" stroke-width="2" stroke-linecap="round" stroke-linejoin="round">
      <path stroke="none" d="M0 0h24v24H0z" fill="none"/>
  <path d="M5 4h4l3 3h7a2 2 0 0 1 2 2v8a2 2 0 0 1 -2 2h-14a2 2 0 0 1 -2 -2v-11a2 2 0 0 1 2 -2" />
    </symbol>
    <symbol id="tabler-settings" viewBox="0 0 24 24" fill="none" stroke="currentColor" stroke-width="2" stroke-linecap="round" stroke-linejoin="round">
      <path stroke="none" d="M0 0h24v24H0z" fill="none"/>
  <path d="M10.325 4.317c.426 -1.756 2.924 -1.756 3.35 0a1.724 1.724 0 0 0 2.573 1.066c1.543 -.94 3.31 .826 2.37 2.37a1.724 1.724 0 0 0 1.065 2.572c1.756 .426 1.756 2.924 0 3.35a1.724 1.724 0 0 0 -1.066 2.573c.94 1.543 -.826 3.31 -2.37 2.37a1.724 1.724 0 0 0 -2.572 1.065c-.426 1.756 -2.924 1.756 -3.35 0a1.724 1.724 0 0 0 -2.573 -1.066c-1.543 .94 -3.31 -.826 -2.37 -2.37a1.724 1.724 0 0 0 -1.065 -2.572c-1.756 -.426 -1.756 -2.924 0 -3.35a1.724 1.724 0 0 0 1.066 -2.573c-.94 -1.543 .826 -3.31 2.37 -2.37c1 .608 2.296 .07 2.572 -1.065z" />
  <path d="M9 12a3 3 0 1 0 6 0a3 3 0 0 0 -6 0" />
    </symbol>
    <symbol id="tabler-edit" viewBox="0 0 24 24" fill="none" stroke="currentColor" stroke-width="2" stroke-linecap="round" stroke-linejoin="round">
      <path stroke="none" d="M0 0h24v24H0z" fill="none"/>
  <path d="M7 7h-1a2 2 0 0 0 -2 2v9a2 2 0 0 0 2 2h9a2 2 0 0 0 2 -2v-1" />
  <path d="M20.385 6.585a2.1 2.1 0 0 0 -2.97 -2.97l-8.415 8.385v3h3l8.385 -8.415z" />
  <path d="M16 5l3 3" />
    </symbol>
    <symbol id="tabler-arrow-left" viewBox="0 0 24 24" fill="none" stroke="currentColor" stroke-width="2" stroke-linecap="round" stroke-linejoin="round">
      <path stroke="none" d="M0 0h24v24H0z" fill="none"/>
  <path d="M5 12l14 0" />
  <path d="M5 12l6 6" />
  <path d="M5 12l6 -6" />
    </symbol>
    <symbol id="tabler-arrow-right" viewBox="0 0 24 24" fill="none" stroke="currentColor" stroke-width="2" stroke-linecap="round" stroke-linejoin="round">
      <path stroke="none" d="M0 0h24v24H0z" fill="none"/>
  <path d="M5 12l14 0" />
  <path d="M13 18l6 -6" />
  <path d="M13 6l6 6" />
    </symbol>
    <symbol id="tabler-file-upload" viewBox="0 0 24 24" fill="none" stroke="currentColor" stroke-width="2" stroke-linecap="round" stroke-linejoin="round">
      <path stroke="none" d="M0 0h24v24H0z" fill="none"/>
  <path d="M14 3v4a1 1 0 0 0 1 1h4" />
  <path d="M17 21h-10a2 2 0 0 1 -2 -2v-14a2 2 0 0 1 2 -2h7l5 5v11a2 2 0 0 1 -2 2z" />
  <path d="M12 11v6" />
  <path d="M9.5 13.5l2.5 -2.5l2.5 2.5" />
    </symbol>
    <symbol id="tabler-file-download" viewBox="0 0 24 24" fill="none" stroke="currentColor" stroke-width="2" stroke-linecap="round" stroke-linejoin="round">
      <path stroke="none" d="M0 0h24v24H0z" fill="none"/>
  <path d="M14 3v4a1 1 0 0 0 1 1h4" />
  <path d="M17 21h-10a2 2 0 0 1 -2 -2v-14a2 2 0 0 1 2 -2h7l5 5v11a2 2 0 0 1 -2 2z" />
  <path d="M12 17v-6" />
  <path d="M9.5 14.5l2.5 2.5l2.5 -2.5" />
    </symbol>
    <symbol id="tabler-trash" viewBox="0 0 24 24" fill="none" stroke="currentColor" stroke-width="2" stroke-linecap="round" stroke-linejoin="round">
      <path stroke="none" d="M0 0h24v24H0z" fill="none"/>
  <path d="M4 7l16 0" />
  <path d="M10 11l0 6" />
  <path d="M14 11l0 6" />
  <path d="M5 7l1 12a2 2 0 0 0 2 2h8a2 2 0 0 0 2 -2l1 -12" />
  <path d="M9 7v-3a1 1 0 0 1 1 -1h4a1 1 0 0 1 1 1v3" />
    </symbol>
    <symbol id="tabler-copy" viewBox="0 0 24 24" fill="none" stroke="currentColor" stroke-width="2" stroke-linecap="round" stroke-linejoin="round">
      <path stroke="none" d="M0 0h24v24H0z" fill="none"/>
  <path d="M7 7m0 2.667a2.667 2.667 0 0 1 2.667 -2.667h8.666a2.667 2.667 0 0 1 2.667 2.667v8.666a2.667 2.667 0 0 1 -2.667 2.667h-8.666a2.667 2.667 0 0 1 -2.667 -2.667z" />
  <path d="M4.012 16.737a2.005 2.005 0 0 1 -1.012 -1.737v-10c0 -1.1 .9 -2 2 -2h10c.75 0 1.158 .385 1.5 1" />
    </symbol>
    <symbol id="tabler-clipboard" viewBox="0 0 24 24" fill="none" stroke="currentColor" stroke-width="2" stroke-linecap="round" stroke-linejoin="round">
      <path stroke="none" d="M0 0h24v24H0z" fill="none"/>
  <path d="M9 5h-2a2 2 0 0 0 -2 2v12a2 2 0 0 0 2 2h10a2 2 0 0 0 2 -2v-12a2 2 0 0 0 -2 -2h-2" />
  <path d="M9 3m0 2a2 2 0 0 1 2 -2h2a2 2 0 0 1 2 2v0a2 2 0 0 1 -2 2h-2a2 2 0 0 1 -2 -2z" />
    </symbol>
    <symbol id="tabler-file" viewBox="0 0 24 24" fill="none" stroke="currentColor" stroke-width="2" stroke-linecap="round" stroke-linejoin="round">
      <path stroke="none" d="M0 0h24v24H0z" fill="none"/>
  <path d="M14 3v4a1 1 0 0 0 1 1h4" />
  <path d="M17 21h-10a2 2 0 0 1 -2 -2v-14a2 2 0 0 1 2 -2h7l5 5v11a2 2 0 0 1 -2 2z" />
    </symbol>
    <symbol id="tabler-folder-plus" viewBox="0 0 24 24" fill="none" stroke="currentColor" stroke-width="2" stroke-linecap="round" stroke-linejoin="round">
      <path stroke="none" d="M0 0h24v24H0z" fill="none"/>
  <path d="M12 19h-7a2 2 0 0 1 -2 -2v-11a2 2 0 0 1 2 -2h4l3 3h7a2 2 0 0 1 2 2v3.5" />
  <path d="M16 19h6" />
  <path d="M19 16v6" />
    </symbol>
    <symbol id="tabler-folder-open" viewBox="0 0 24 24" fill="none" stroke="currentColor" stroke-width="2" stroke-linecap="round" stroke-linejoin="round">
      <path stroke="none" d="M0 0h24v24H0z" fill="none"/>
  <path d="M5 19l2.757 -7.351a1 1 0 0 1 .936 -.649h12.307a1 1 0 0 1 .986 1.164l-.996 5.211a2 2 0 0 1 -1.964 1.625h-14.026a2 2 0 0 1 -2 -2v-11a2 2 0 0 1 2 -2h4l3 3h7a2 2 0 0 1 2 2v2" />
    </symbol>
    <symbol id="tabler-cpu" viewBox="0 0 24 24" fill="none" stroke="currentColor" stroke-width="2" stroke-linecap="round" stroke-linejoin="round">
      <path stroke="none" d="M0 0h24v24H0z" fill="none"/>
  <path d="M5 5m0 1a1 1 0 0 1 1 -1h12a1 1 0 0 1 1 1v12a1 1 0 0 1 -1 1h-12a1 1 0 0 1 -1 -1z" />
  <path d="M9 9h6v6h-6z" />
  <path d="M3 10h2" />
  <path d="M3 14h2" />
  <path d="M10 3v2" />
  <path d="M14 3v2" />
  <path d="M21 10h-2" />
  <path d="M21 14h-2" />
  <path d="M14 21v-2" />
  <path d="M10 21v-2" />
    </symbol>
    <symbol id="tabler-device-desktop" viewBox="0 0 24 24" fill="none" stroke="currentColor" stroke-width="2" stroke-linecap="round" stroke-linejoin="round">
      <path stroke="none" d="M0 0h24v24H0z" fill="none"/>
  <path d="M3 5a1 1 0 0 1 1 -1h16a1 1 0 0 1 1 1v10a1 1 0 0 1 -1 1h-16a1 1 0 0 1 -1 -1v-10z" />
  <path d="M7 20h10" />
  <path d="M9 16v4" />
  <path d="M15 16v4" />
    </symbol>
    <symbol id="tabler-cursor-text" viewBox="0 0 24 24" fill="none" stroke="currentColor" stroke-width="2" stroke-linecap="round" stroke-linejoin="round">
      <path stroke="none" d="M0 0h24v24H0z" fill="none"/>
  <path d="M10 12h4" />
  <path d="M9 4a3 3 0 0 1 3 3v10a3 3 0 0 1 -3 3" />
  <path d="M15 4a3 3 0 0 0 -3 3v10a3 3 0 0 0 3 3" />
    </symbol>
    <symbol id="tabler-check" viewBox="0 0 24 24" fill="none" stroke="currentColor" stroke-width="2" stroke-linecap="round" stroke-linejoin="round">
      <path stroke="none" d="M0 0h24v24H0z" fill="none"/>
  <path d="M5 12l5 5l10 -10" />
    </symbol>
    <symbol id="tabler-square" viewBox="0 0 24 24" fill="none" stroke="currentColor" stroke-width="2" stroke-linecap="round" stroke-linejoin="round">
      <path stroke="none" d="M0 0h24v24H0z" fill="none"/>
  <path d="M3 3m0 2a2 2 0 0 1 2 -2h14a2 2 0 0 1 2 2v14a2 2 0 0 1 -2 2h-14a2 2 0 0 1 -2 -2z" />
    </symbol>
    <symbol id="tabler-x" viewBox="0 0 24 24" fill="none" stroke="currentColor" stroke-width="2" stroke-linecap="round" stroke-linejoin="round">
      <path stroke="none" d="M0 0h24v24H0z" fill="none"/>
  <path d="M18 6l-12 12" />
  <path d="M6 6l12 12" />
    </symbol>
    <symbol id="tabler-terminal" viewBox="0 0 24 24" fill="none" stroke="currentColor" stroke-width="2" stroke-linecap="round" stroke-linejoin="round">
      <path stroke="none" d="M0 0h24v24H0z" fill="none"/>
  <path d="M5 7l5 5l-5 5" />
  <path d="M12 19l7 0" />
    </symbol>
    <symbol id="tabler-file-text" viewBox="0 0 24 24" fill="none" stroke="currentColor" stroke-width="2" stroke-linecap="round" stroke-linejoin="round">
      <path stroke="none" d="M0 0h24v24H0z" fill="none"/>
  <path d="M14 3v4a1 1 0 0 0 1 1h4" />
  <path d="M17 21h-10a2 2 0 0 1 -2 -2v-14a2 2 0 0 1 2 -2h7l5 5v11a2 2 0 0 1 -2 2z" />
  <path d="M9 9l1 0" />
  <path d="M9 13l6 0" />
  <path d="M9 17l6 0" />
    </symbol>
    <symbol id="tabler-bolt" viewBox="0 0 24 24" fill="none" stroke="currentColor" stroke-width="2" stroke-linecap="round" stroke-linejoin="round">
      <path stroke="none" d="M0 0h24v24H0z" fill="none"/>
  <path d="M13 3l0 7l6 0l-8 11l0 -7l-6 0l8 -11" />
    </symbol>
    <symbol id="tabler-circle" viewBox="0 0 24 24" fill="none" stroke="currentColor" stroke-width="2" stroke-linecap="round" stroke-linejoin="round">
      <path stroke="none" d="M0 0h24v24H0z" fill="none"/>
  <path d="M12 12m-9 0a9 9 0 1 0 18 0a9 9 0 1 0 -18 0" />
    </symbol>
    <symbol id="tabler-cloud-network" viewBox="0 0 24 24" fill="none" stroke="currentColor" stroke-width="2" stroke-linecap="round" stroke-linejoin="round">
      <path stroke="none" d="M0 0h24v24H0z" fill="none"/>
  <path stroke="none" d="M0 0h24v24H0z" />
  <path d="M3 20h7" />
  <path d="M14 20h7" />
  <path d="M10 20a2 2 0 1 0 4 0a2 2 0 0 0 -4 0" />
  <path d="M12 16v2" />
  <path d="M8 16.004h-1.343c-2.572 -.004 -4.657 -2.011 -4.657 -4.487c0 -2.475 2.085 -4.482 4.657 -4.482c.393 -1.762 1.794 -3.2 3.675 -3.773c1.88 -.572 3.956 -.193 5.444 1c1.488 1.19 2.162 3.007 1.77 4.769h.99c1.913 0 3.464 1.56 3.464 3.486c0 1.927 -1.551 3.487 -3.465 3.487h-2.535" />
    </symbol>
    <symbol id="tabler-shield-chevron" viewBox="0 0 24 24" fill="none" stroke="currentColor" stroke-width="2" stroke-linecap="round" stroke-linejoin="round">
      <path stroke="none" d="M0 0h24v24H0z" fill="none"/>
  <path stroke="none" d="M0 0h24v24H0z" />
  <path d="M12 3a12 12 0 0 0 8.5 3a12 12 0 0 1 -8.5 15a12 12 0 0 1 -8.5 -15a12 12 0 0 0 8.5 -3" />
  <path d="M4 14l8 -3l8 3" />
    </symbol>
    <symbol id="tabler-message-2" viewBox="0 0 24 24" fill="none" stroke="currentColor" stroke-width="2" stroke-linecap="round" stroke-linejoin="round">
      <path stroke="none" d="M0 0h24v24H0z" fill="none"/>
  <path stroke="none" d="M0 0h24v24H0z" />
  <path d="M8 9h8" />
  <path d="M8 13h6" />
  <path d="M9 18h-3a3 3 0 0 1 -3 -3v-8a3 3 0 0 1 3 -3h12a3 3 0 0 1 3 3v8a3 3 0 0 1 -3 3h-3l-3 3l-3 -3z" />
    </symbol>
    <symbol id="tabler-clock-cog" viewBox="0 0 24 24" fill="none" stroke="currentColor" stroke-width="2" stroke-linecap="round" stroke-linejoin="round">
      <path stroke="none" d="M0 0h24v24H0z" fill="none"/>
  <path stroke="none" d="M0 0h24v24H0z" />
  <path d="M21 12a9 9 0 1 0 -9.002 9" />
  <path d="M19.001 19m-2 0a2 2 0 1 0 4 0a2 2 0 1 0 -4 0" />
  <path d="M19.001 15.5v1.5" />
  <path d="M19.001 21v1.5" />
  <path d="M22.032 17.25l-1.299 .75" />
  <path d="M17.27 20l-1.3 .75" />
  <path d="M15.97 17.25l1.3 .75" />
  <path d="M20.733 20l1.3 .75" />
  <path d="M12 7v5l2 2" />
    </symbol>
    <symbol id="tabler-car-crash" viewBox="0 0 24 24" fill="none" stroke="currentColor" stroke-width="2" stroke-linecap="round" stroke-linejoin="round">
      <path stroke="none" d="M0 0h24v24H0z" fill="none"/>
  <path stroke="none" d="M0 0h24v24H0z" />
  <path d="M10 17m-2 0a2 2 0 1 0 4 0a2 2 0 1 0 -4 0" />
  <path d="M7 6l4 5h1a2 2 0 0 1 2 2v4h-2m-4 0h-5m0 -6h8m-6 0v-5m2 0h-4" />
  <path d="M14 8v-2" />
  <path d="M19 12h2" />
  <path d="M17.5 15.5l1.5 1.5" />
  <path d="M17.5 8.5l1.5 -1.5" />
    </symbol>
    <symbol id="tabler-gps" viewBox="0 0 24 24" fill="none" stroke="currentColor" stroke-width="2" stroke-linecap="round" stroke-linejoin="round">
      <path stroke="none" d="M0 0h24v24H0z" fill="none"/>
  <path stroke="none" d="M0 0h24v24H0z" />
  <path d="M12 12m-9 0a9 9 0 1 0 18 0a9 9 0 1 0 -18 0" />
  <path d="M12 17l-1 -4l-4 -1l9 -4z" />
    </symbol>
    <symbol id="tabler-cell" viewBox="0 0 24 24" fill="none" stroke="currentColor" stroke-width="2" stroke-linecap="round" stroke-linejoin="round">
      <path stroke="none" d="M0 0h24v24H0z" fill="none"/>
  <path stroke="none" d="M0 0h24v24H0z" />
  <path d="M8 4l-4 2v5l4 2l4 -2v-5z" />
  <path d="M12 11l4 2l4 -2v-5l-4 -2l-4 2" />
  <path d="M8 13v5l4 2l4 -2v-5" />
    </symbol>
    <symbol id="tabler-device-sd-card" viewBox="0 0 24 24" fill="none" stroke="currentColor" stroke-width="2" stroke-linecap="round" stroke-linejoin="round">
      <path stroke="none" d="M0 0h24v24H0z" fill="none"/>
  <path stroke="none" d="M0 0h24v24H0z" />
  <path d="M7 21h10a2 2 0 0 0 2 -2v-14a2 2 0 0 0 -2 -2h-6.172a2 2 0 0 0 -1.414 .586l-3.828 3.828a2 2 0 0 0 -.586 1.414v10.172a2 2 0 0 0 2 2z" />
  <path d="M13 6v2" />
  <path d="M16 6v2" />
  <path d="M10 7v1" />
    </symbol>
    <symbol id="tabler-topology-bus" viewBox="0 0 24 24" fill="none" stroke="currentColor" stroke-width="2" stroke-linecap="round" stroke-linejoin="round">
      <path stroke="none" d="M0 0h24v24H0z" fill="none"/>
  <path stroke="none" d="M0 0h24v24H0z" />
  <path d="M14 10a2 2 0 1 0 -4 0a2 2 0 0 0 4 0z" />
  <path d="M6 10a2 2 0 1 0 -4 0a2 2 0 0 0 4 0z" />
  <path d="M22 10a2 2 0 1 0 -4 0a2 2 0 0 0 4 0z" />
  <path d="M2 16h20" />
  <path d="M4 12v4" />
  <path d="M12 12v4" />
  <path d="M20 12v4" />
    </symbol>
    <symbol id="tabler-car" viewBox="0 0 24 24" fill="none" stroke="currentColor" stroke-width="2" stroke-linecap="round" stroke-linejoin="round">
      <path stroke="none" d="M0 0h24v24H0z" fill="none"/>
  <path stroke="none" d="M0 0h24v24H0z" />
  <path d="M7 17m-2 0a2 2 0 1 0 4 0a2 2 0 1 0 -4 0" />
  <path d="M17 17m-2 0a2 2 0 1 0 4 0a2 2 0 1 0 -4 0" />
  <path d="M5 17h-2v-6l2 -5h9l4 5h1a2 2 0 0 1 2 2v4h-2m-4 0h-6m-6 -6h15m-6 0v-5" />
    </symbol>
    <symbol id="tabler-adjustments-alt" viewBox="0 0 24 24" fill="none" stroke="currentColor" stroke-width="2" stroke-linecap="round" stroke-linejoin="round">
      <path stroke="none" d="M0 0h24v24H0z" fill="none"/>
  <path stroke="none" d="M0 0h24v24H0z" />
  <path d="M4 8h4v4h-4z" />
  <path d="M6 4l0 4" />
  <path d="M6 12l0 8" />
  <path d="M10 14h4v4h-4z" />
  <path d="M12 4l0 10" />
  <path d="M12 18l0 2" />
  <path d="M16 5h4v4h-4z" />
  <path d="M18 4l0 1" />
  <path d="M18 9l0 11" />
    </symbol>
    <symbol id="tabler-chevron-down" viewBox="0 0 24 24" fill="none" stroke="currentColor" stroke-width="2" stroke-linecap="round" stroke-linejoin="round">
      <path stroke="none" d="M0 0h24v24H0z" fill="none"/>
  <path stroke="none" d="M0 0h24v24H0z" />
  <path d="M6 9l6 6l6 -6" />
    </symbol>
    <symbol id="tabler-chevron-up" viewBox="0 0 24 24" fill="none" stroke="currentColor" stroke-width="2" stroke-linecap="round" stroke-linejoin="round">
      <path stroke="none" d="M0 0h24v24H0z" fill="none"/>
  <path stroke="none" d="M0 0h24v24H0z" />
  <path d="M6 15l6 -6l6 6" />
    </symbol>
    <symbol id="tabler-filter" viewBox="0 0 24 24" fill="none" stroke="currentColor" stroke-width="2" stroke-linecap="round" stroke-linejoin="round">
      <path stroke="none" d="M0 0h24v24H0z" fill="none"/>
  <path stroke="none" d="M0 0h24v24H0z" />
  <path d="M4 4h16v2.172a2 2 0 0 1 -.586 1.414l-4.414 4.414v7l-6 2v-8.5l-4.48 -4.928a2 2 0 0 1 -.52 -1.345v-2.227z" />
    </symbol>
    <symbol id="tabler-wifi" viewBox="0 0 24 24" fill="none" stroke="currentColor" stroke-width="2" stroke-linecap="round" stroke-linejoin="round">
      <path stroke="none" d="M0 0h24v24H0z" fill="none"/>
  <path stroke="none" d="M0 0h24v24H0z" />
  <path d="M12 18l.01 0" />
  <path d="M9.172 15.172a4 4 0 0 1 5.656 0" />
  <path d="M6.343 12.343a8 8 0 0 1 11.314 0" />
  <path d="M3.515 9.515c4.686 -4.687 12.284 -4.687 17 0" />
    </symbol>
    <symbol id="tabler-bluetooth" viewBox="0 0 24 24" fill="none" stroke="currentColor" stroke-width="2" stroke-linecap="round" stroke-linejoin="round">
      <path stroke="none" d="M0 0h24v24H0z" fill="none"/>
  <path stroke="none" d="M0 0h24v24H0z" />
  <path d="M7 8l10 8l-5 4l0 -16l5 4l-10 8" />
    </symbol>
    <symbol id="tabler-network" viewBox="0 0 24 24" fill="none" stroke="currentColor" stroke-width="2" stroke-linecap="round" stroke-linejoin="round">
      <path stroke="none" d="M0 0h24v24H0z" fill="none"/>
  <path stroke="none" d="M0 0h24v24H0z" />
  <path d="M6 9a6 6 0 1 0 12 0a6 6 0 0 0 -12 0" />
  <path d="M12 3c1.333 .333 2 2.333 2 6s-.667 5.667 -2 6" />
  <path d="M12 3c-1.333 .333 -2 2.333 -2 6s.667 5.667 2 6" />
  <path d="M6 9h12" />
  <path d="M3 20h7" />
  <path d="M14 20h7" />
  <path d="M10 20a2 2 0 1 0 4 0a2 2 0 0 0 -4 0" />
  <path d="M12 15v3" />
    </symbol>
    <symbol id="tabler-apps" viewBox="0 0 24 24" fill="none" stroke="currentColor" stroke-width="2" stroke-linecap="round" stroke-linejoin="round">
      <path stroke="none" d="M0 0h24v24H0z" fill="none"/>
  <path stroke="none" d="M0 0h24v24H0z" />
  <path d="M4 4m0 1a1 1 0 0 1 1 -1h4a1 1 0 0 1 1 1v4a1 1 0 0 1 -1 1h-4a1 1 0 0 1 -1 -1z" />
  <path d="M4 14m0 1a1 1 0 0 1 1 -1h4a1 1 0 0 1 1 1v4a1 1 0 0 1 -1 1h-4a1 1 0 0 1 -1 -1z" />
  <path d="M14 14m0 1a1 1 0 0 1 1 -1h4a1 1 0 0 1 1 1v4a1 1 0 0 1 -1 1h-4a1 1 0 0 1 -1 -1z" />
  <path d="M14 7l6 0" />
  <path d="M17 4l0 6" />
    </symbol>
    <symbol id="tabler-robot-face" viewBox="0 0 24 24" fill="none" stroke="currentColor" stroke-width="2" stroke-linecap="round" stroke-linejoin="round">
      <path stroke="none" d="M0 0h24v24H0z" fill="none"/>
  <path stroke="none" d="M0 0h24v24H0z" />
  <path d="M6 5h12a2 2 0 0 1 2 2v12a2 2 0 0 1 -2 2h-12a2 2 0 0 1 -2 -2v-12a2 2 0 0 1 2 -2z" />
  <path d="M9 16c1 .667 2 1 3 1s2 -.333 3 -1" />
  <path d="M9 7l-1 -4" />
  <path d="M15 7l1 -4" />
  <path d="M9 12v-1" />
  <path d="M15 12v-1" />
    </symbol>
    <symbol id="tabler-activity" viewBox="0 0 24 24" fill="none" stroke="currentColor" stroke-width="2" stroke-linecap="round" stroke-linejoin="round">
      <path stroke="none" d="M0 0h24v24H0z" fill="none"/>
  <path stroke="none" d="M0 0h24v24H0z" />
  <path d="M3 12h4l3 8l4 -16l3 8h4" />
    </symbol>
    <symbol id="tabler-info-circle" viewBox="0 0 24 24" fill="none" stroke="currentColor" stroke-width="2" stroke-linecap="round" stroke-linejoin="round">
      <path stroke="none" d="M0 0h24v24H0z" fill="none"/>
  <path stroke="none" d="M0 0h24v24H0z" />
  <path d="M3 12a9 9 0 1 0 18 0a9 9 0 0 0 -18 0" />
  <path d="M12 9h.01" />
  <path d="M11 12h1v4h1" />
    </symbol>
    <symbol id="tabler-signal-4g" viewBox="0 0 24 24" fill="none" stroke="currentColor" stroke-width="2" stroke-linecap="round" stroke-linejoin="round">
      <path stroke="none" d="M0 0h24v24H0z" fill="none"/>
      <path d="M6 8v3a1 1 0 0 0 1 1h3" />
      <path d="M10 8v8" />
      <path d="M17 8h-2a2 2 0 0 0 -2 2v4a2 2 0 0 0 2 2h2v-4h-1" />
    </symbol>
    <symbol id="tabler-layout-bottombar-collapse" viewBox="0 0 24 24" fill="none" stroke="currentColor" stroke-width="2" stroke-linecap="round" stroke-linejoin="round">
      <path stroke="none" d="M0 0h24v24H0z" fill="none"/>
  <path stroke="none" d="M0 0h24v24H0z" />
  <path d="M20 6v12a2 2 0 0 1 -2 2h-12a2 2 0 0 1 -2 -2v-12a2 2 0 0 1 2 -2h12a2 2 0 0 1 2 2z" />
  <path d="M20 15h-16" />
  <path d="M14 8l-2 2l-2 -2" />
    </symbol>
    <symbol id="tabler-layout-navbar-collapse" viewBox="0 0 24 24" fill="none" stroke="currentColor" stroke-width="2" stroke-linecap="round" stroke-linejoin="round">
      <path stroke="none" d="M0 0h24v24H0z" fill="none"/>
  <path stroke="none" d="M0 0h24v24H0z" />
  <path d="M4 18v-12a2 2 0 0 1 2 -2h12a2 2 0 0 1 2 2v12a2 2 0 0 1 -2 2h-12a2 2 0 0 1 -2 -2z" />
  <path d="M4 9h16" />
  <path d="M10 16l2 -2l2 2" />
    </symbol>
    <symbol id="tabler-pin" viewBox="0 0 24 24" fill="none" stroke="currentColor" stroke-width="2" stroke-linecap="round" stroke-linejoin="round">
      <path stroke="none" d="M0 0h24v24H0z" fill="none"/>
  <path stroke="none" d="M0 0h24v24H0z" />
  <path d="M15 4.5l-4 4l-4 1.5l-1.5 1.5l7 7l1.5 -1.5l1.5 -4l4 -4" />
  <path d="M9 15l-4.5 4.5" />
  <path d="M14.5 4l5.5 5.5" />
    </symbol>
    <symbol id="tabler-layout-sidebar-left-collapse" viewBox="0 0 24 24" fill="none" stroke="currentColor" stroke-width="2" stroke-linecap="round" stroke-linejoin="round">
      <path stroke="none" d="M0 0h24v24H0z" fill="none"/>
  <path stroke="none" d="M0 0h24v24H0z" />
  <path d="M4 4m0 2a2 2 0 0 1 2 -2h12a2 2 0 0 1 2 2v12a2 2 0 0 1 -2 2h-12a2 2 0 0 1 -2 -2z" />
  <path d="M9 4v16" />
  <path d="M15 10l-2 2l2 2" />
    </symbol>
    <symbol id="tabler-bug" viewBox="0 0 24 24" fill="none" stroke="currentColor" stroke-width="2" stroke-linecap="round" stroke-linejoin="round">
      <path stroke="none" d="M0 0h24v24H0z" fill="none"/>
      <path d="M9 9V8a3 3 0 0 1 6 0v1" />
      <path d="M8 9h8a6 6 0 0 1 1 3v3a5 5 0 0 1 -10 0v-3a6 6 0 0 1 1 -3" />
      <path d="M3 13h4" />
      <path d="M17 13h4" />
      <path d="M12 20v2" />
      <path d="M4 19l3.35 -2" />
      <path d="M20 19l-3.35 -2" />
      <path d="M4 7l3.75 2.4" />
      <path d="M20 7l-3.75 2.4" />
    </symbol>
    <symbol id="tabler-hash" viewBox="0 0 24 24" fill="none" stroke="currentColor" stroke-width="2" stroke-linecap="round" stroke-linejoin="round">
      <path stroke="none" d="M0 0h24v24H0z" fill="none"/>
      <path d="M5 9l14 0" />
      <path d="M5 15l14 0" />
      <path d="M11 4l-4 16" />
      <path d="M17 4l-4 16" />
    </symbol>
    <symbol id="tabler-player-track-next" viewBox="0 0 24 24" fill="none" stroke="currentColor" stroke-width="2" stroke-linecap="round" stroke-linejoin="round">
      <path stroke="none" d="M0 0h24v24H0z" fill="none"/>
      <path d="M3 5v14l8 -7z" />
      <path d="M14 5v14l8 -7z" />
    </symbol>
    <symbol id="tabler-player-skip-forward" viewBox="0 0 24 24" fill="none" stroke="currentColor" stroke-width="2" stroke-linecap="round" stroke-linejoin="round">
      <path stroke="none" d="M0 0h24v24H0z" fill="none"/>
      <path d="M4 5v14l12 -7z" />
      <path d="M20 5l0 14" />
    </symbol>
    <symbol id="tabler-step-into" viewBox="0 0 24 24" fill="none" stroke="currentColor" stroke-width="2" stroke-linecap="round" stroke-linejoin="round">
      <path stroke="none" d="M0 0h24v24H0z" fill="none"/>
      <path d="M12 3l0 12" />
      <path d="M16 11l-4 4" />
      <path d="M8 11l4 4" />
      <path d="M11 20a1 1 0 1 0 2 0a1 1 0 1 0 -2 0" />
    </symbol>
    <symbol id="tabler-step-out" viewBox="0 0 24 24" fill="none" stroke="currentColor" stroke-width="2" stroke-linecap="round" stroke-linejoin="round">
      <path stroke="none" d="M0 0h24v24H0z" fill="none"/>
      <path d="M12 3l0 12" />
      <path d="M16 7l-4 -4" />
      <path d="M8 7l4 -4" />
      <path d="M11 20a1 1 0 1 0 2 0a1 1 0 1 0 -2 0" />
    </symbol>
    <symbol id="tabler-plug-connected" viewBox="0 0 24 24" fill="none" stroke="currentColor" stroke-width="2" stroke-linecap="round" stroke-linejoin="round">
      <path stroke="none" d="M0 0h24v24H0z" fill="none"/>
      <path d="M7 12l5 5l-1.5 1.5a3.536 3.536 0 1 1 -5 -5l1.5 -1.5z" />
      <path d="M17 12l-5 -5l1.5 -1.5a3.536 3.536 0 1 1 5 5l-1.5 1.5z" />
      <path d="M3 21l2.5 -2.5" />
      <path d="M18.5 5.5l2.5 -2.5" />
      <path d="M10 11l-2 2" />
      <path d="M13 14l-2 2" />
    </symbol>
    <symbol id="tabler-usb" viewBox="0 0 24 24" fill="none" stroke="currentColor" stroke-width="2" stroke-linecap="round" stroke-linejoin="round">
      <path stroke="none" d="M0 0h24v24H0z" fill="none"/>
      <path fill="none" d="M12 19m-2 0a2 2 0 1 0 4 0a2 2 0 1 0 -4 0" />
      <path fill="none" d="M12 17v-11.5" />
      <path fill="none" d="M7 10v3l5 3" />
      <path fill="none" d="M12 14.5l5 -2v-2.5" />
      <path fill="none" d="M16 10h2v-2h-2z" />
      <path fill="none" d="M7 9m-1 0a1 1 0 1 0 2 0a1 1 0 1 0 -2 0" />
      <path fill="none" d="M10 5.5h4l-2 -2.5z" />
    </symbol>
    <symbol id="tabler-key" viewBox="0 0 24 24" fill="none" stroke="currentColor" stroke-width="2" stroke-linecap="round" stroke-linejoin="round">
      <path stroke="none" d="M0 0h24v24H0z" fill="none"/>
      <path d="M16.555 3.843l3.602 3.602a2.877 2.877 0 0 1 0 4.069l-2.643 2.643a2.877 2.877 0 0 1 -4.069 0l-.301 -.301l-6.558 6.558a2 2 0 0 1 -1.239 .578l-.175 .008h-1.172a1 1 0 0 1 -.993 -.883l-.007 -.117v-1.172a2 2 0 0 1 .467 -1.284l.119 -.13l.414 -.414h2v-2h2v-2l2.144 -2.144l-.301 -.301a2.877 2.877 0 0 1 0 -4.069l2.643 -2.643a2.877 2.877 0 0 1 4.069 0z" />
      <path d="M15 9h.01" />
    </symbol>
    <symbol id="tabler-bulb" viewBox="0 0 24 24" fill="none" stroke="currentColor" stroke-width="2" stroke-linecap="round" stroke-linejoin="round">
      <path stroke="none" d="M0 0h24v24H0z" fill="none"/>
      <path d="M3 12h1m8 -9v1m8 8h1m-15.4 -6.4l.7 .7m12.1 -.7l-.7 .7" />
      <path d="M9 16a5 5 0 1 1 6 0a3.5 3.5 0 0 0 -1 3a2 2 0 0 1 -4 0a3.5 3.5 0 0 0 -1 -3" />
      <path d="M9.7 17l4.6 0" />
    </symbol>
    <symbol id="tabler-refresh" viewBox="0 0 24 24" fill="none" stroke="currentColor" stroke-width="2" stroke-linecap="round" stroke-linejoin="round">
      <path stroke="none" d="M0 0h24v24H0z" fill="none"/>
      <path d="M20 11a8.1 8.1 0 0 0 -15.5 -2m-.5 -4v4h4" />
      <path d="M4 13a8.1 8.1 0 0 0 15.5 2m.5 4v-4h-4" />
    </symbol>
    <symbol id="tabler-lock" viewBox="0 0 24 24" fill="none" stroke="currentColor" stroke-width="2" stroke-linecap="round" stroke-linejoin="round">
      <path stroke="none" d="M0 0h24v24H0z" fill="none"/>
      <path d="M5 13a2 2 0 0 1 2 -2h10a2 2 0 0 1 2 2v6a2 2 0 0 1 -2 2h-10a2 2 0 0 1 -2 -2v-6z" />
      <path d="M11 16a1 1 0 1 0 2 0a1 1 0 0 0 -2 0" />
      <path d="M8 11v-4a4 4 0 1 1 8 0v4" />
    </symbol>
    <symbol id="tabler-download" viewBox="0 0 24 24" fill="none" stroke="currentColor" stroke-width="2" stroke-linecap="round" stroke-linejoin="round">
      <path stroke="none" d="M0 0h24v24H0z" fill="none"/>
  <path stroke="none" d="M0 0h24v24H0z" />
  <path d="M4 17v2a2 2 0 0 0 2 2h12a2 2 0 0 0 2 -2v-2" />
  <path d="M7 11l5 5l5 -5" />
  <path d="M12 4l0 12" />
    </symbol>
    <symbol id="tabler-alert-triangle" viewBox="0 0 24 24" fill="none" stroke="currentColor" stroke-width="2" stroke-linecap="round" stroke-linejoin="round">
      <path stroke="none" d="M0 0h24v24H0z" fill="none"/>
  <path stroke="none" d="M0 0h24v24H0z" />
  <path d="M12 9v4" />
  <path d="M10.363 3.591l-8.106 13.534a1.914 1.914 0 0 0 1.636 2.871h16.214a1.914 1.914 0 0 0 1.636 -2.87l-8.106 -13.536a1.914 1.914 0 0 0 -3.274 0z" />
  <path d="M12 16h.01" />
    </symbol>
    <symbol id="tabler-external-link" viewBox="0 0 24 24" fill="none" stroke="currentColor" stroke-width="2" stroke-linecap="round" stroke-linejoin="round">
      <path stroke="none" d="M0 0h24v24H0z" fill="none"/>
  <path stroke="none" d="M0 0h24v24H0z" />
  <path d="M12 6h-6a2 2 0 0 0 -2 2v10a2 2 0 0 0 2 2h10a2 2 0 0 0 2 -2v-6" />
  <path d="M11 13l9 -9" />
  <path d="M15 4h5v5" />
    </symbol>
    <symbol id="tabler-book" viewBox="0 0 24 24" fill="none" stroke="currentColor" stroke-width="2" stroke-linecap="round" stroke-linejoin="round">
      <path stroke="none" d="M0 0h24v24H0z" fill="none"/>
  <path stroke="none" d="M0 0h24v24H0z" />
  <path d="M3 19a9 9 0 0 1 9 0a9 9 0 0 1 9 0" />
  <path d="M3 6a9 9 0 0 1 9 0a9 9 0 0 1 9 0" />
  <path d="M3 6l0 13" />
  <path d="M12 6l0 13" />
  <path d="M21 6l0 13" />
    </symbol>
    <symbol id="tabler-packages" viewBox="0 0 24 24" fill="none" stroke="currentColor" stroke-width="2" stroke-linecap="round" stroke-linejoin="round">
      <path stroke="none" d="M0 0h24v24H0z" fill="none"/>
  <path stroke="none" d="M0 0h24v24H0z" />
  <path d="M7 16.5l-5 -3l5 -3l5 3v5.5l-5 3z" />
  <path d="M2 13.5v5.5l5 3" />
  <path d="M7 16.545l5 -3.03" />
  <path d="M17 16.5l-5 -3l5 -3l5 3v5.5l-5 3z" />
  <path d="M12 19l5 3" />
  <path d="M17 16.5l5 -3" />
  <path d="M12 13.5v-5.5l-5 -3l5 -3l5 3v5.5" />
  <path d="M7 5.03v5.455" />
  <path d="M12 8l5 -3" />
    </symbol>
  </defs>
</svg>